<svg width="20" height="20" viewBox="0 0 20 20" fill="none" xmlns="http://www.w3.org/2000/svg">
<path d="M7.91667 8.33333C9.5275 8.33333 10.8333 7.0275 10.8333 5.41667C10.8333 3.80584 9.5275 2.5 7.91667 2.5C6.30584 2.5 5 3.80584 5 5.41667C5 7.0275 6.30584 8.33333 7.91667 8.33333Z" stroke="white" stroke-width="1.75" stroke-linecap="round" stroke-linejoin="round"/>
<path d="M13.5865 2.91675C14.4335 3.42712 15 4.35578 15 5.41675C15 6.47772 14.4335 7.40637 13.5865 7.91675" stroke="white" stroke-width="1.75" stroke-linecap="round" stroke-linejoin="round"/>
<path d="M8.33335 11.6667H7.50002C4.27836 11.6667 1.66669 14.2784 1.66669 17.5001H14.1667C14.1667 14.2784 11.555 11.6667 8.33335 11.6667Z" stroke="white" stroke-width="1.75" stroke-linecap="round" stroke-linejoin="round"/>
<path d="M18.3333 17.5001V17.0001C18.3333 15.1332 18.3333 14.1998 17.97 13.4867C17.6504 12.8595 17.1405 12.3496 16.5133 12.03" stroke="white" stroke-width="1.75" stroke-linecap="round" stroke-linejoin="round"/>
</svg>
